<svg xmlns="http://www.w3.org/2000/svg" viewBox="0 0 200 200" width="200" height="200">
  <circle cx="100" cy="100" r="100" fill="#2775CA"/>
  <path d="M125.5 115.5c0-13.5-8.1-18.2-24.3-20.2-11.6-1.6-13.9-4.9-13.9-10.7 0-5.8 4.1-9.7 12.3-9.7 7.4 0 11.4 2.5 13.4 8.7.4 1.2 1.6 2 2.9 2h6.6c1.6 0 2.9-1.2 2.9-2.9v-.4c-1.6-9.5-8.7-16.6-18.2-17.8V53.6c0-1.6-1.2-2.9-3.3-3.3h-6.2c-1.6 0-2.9 1.2-3.3 3.3v10.7c-12.3 1.6-20.2 10.3-20.2 20.6 0 12.7 7.8 17.8 24.3 20.2 10.7 2 14.3 4.9 14.3 11.1s-5.3 10.7-12.7 10.7c-9.9 0-13.5-4.1-14.7-9.5-.4-1.6-1.6-2.5-2.9-2.5h-7c-1.6 0-2.9 1.2-2.9 2.9v.4c1.6 10.7 8.7 18.6 20.6 20.6v10.7c0 1.6 1.2 2.9 3.3 3.3h6.2c1.6 0 2.9-1.2 3.3-3.3v-10.7c12.2-2 20.4-10.7 20.4-21.8z" fill="white"/>
  <path d="M78.5 161.5c-33-12.3-49.6-49.2-37.3-82.2 6.2-16.6 19.4-29.8 37.3-36v-13.1C42.2 42.8 16.2 82.4 28.9 118.7c7.4 21 24.3 37.3 45.5 44.7v-1.9h4.1zm43 8.7v13.1c36.4-12.7 55.8-52.3 43.1-88.6-7.4-21-24.3-37.3-43.1-44.7v13.5c23.5 11.9 33 40.5 21 64s-40.5 33-64 21" fill="white" opacity="0.6"/>
</svg>
